<!doctype html>
<svg viewBox="-102.233 152.463 612.274 95.296" width="612.274" height="95.296">
  <path d="M -82.7 209.483 C -85.397 209.483 -87.929 209.055 -90.296 208.2 C -91.151 209.121 -91.776 209.976 -92.171 210.765 C -92.565 211.554 -92.762 212.245 -92.762 212.837 C -92.762 214.021 -92.467 214.909 -91.875 215.5 C -91.217 216.092 -89.869 216.487 -87.83 216.684 C -85.791 216.882 -82.667 216.98 -78.458 216.98 C -71.816 216.98 -67.179 217.802 -64.548 219.447 C -61.918 221.091 -60.602 223.919 -60.602 227.93 C -60.602 230.167 -61.227 232.436 -62.477 234.737 C -63.66 237.105 -65.338 239.242 -67.508 241.149 C -69.678 243.122 -72.276 244.701 -75.301 245.885 C -78.261 247.134 -81.516 247.759 -85.068 247.759 C -91.118 247.759 -95.492 246.608 -98.188 244.306 C -100.885 242.07 -102.233 238.782 -102.233 234.441 C -102.233 231.942 -101.608 229.772 -100.359 227.93 C -99.043 226.155 -97.235 224.774 -94.933 223.787 C -96.774 223.195 -98.024 222.307 -98.682 221.124 C -99.339 219.874 -99.668 218.328 -99.668 216.487 C -99.668 214.646 -99.208 212.837 -98.287 211.061 C -97.3 209.22 -96.018 207.543 -94.44 206.03 C -96.281 204.715 -97.794 203.005 -98.977 200.9 C -100.096 198.796 -100.655 196.329 -100.655 193.501 C -100.655 190.476 -99.997 187.747 -98.682 185.313 C -97.366 182.814 -95.393 180.841 -92.762 179.394 C -90.066 177.882 -86.778 177.125 -82.897 177.125 C -80.661 177.125 -78.59 177.421 -76.682 178.013 L -60.504 178.013 C -60.241 178.868 -60.076 179.855 -60.01 180.973 C -59.879 182.025 -59.813 183.077 -59.813 184.129 C -61.063 183.801 -62.608 183.505 -64.45 183.242 C -66.225 182.913 -67.87 182.683 -69.382 182.551 C -67.804 184.195 -66.653 185.971 -65.929 187.878 C -65.206 189.785 -64.844 191.463 -64.844 192.909 C -64.844 195.935 -65.535 198.73 -66.916 201.295 C -68.231 203.794 -70.237 205.8 -72.934 207.312 C -75.564 208.759 -78.82 209.483 -82.7 209.483 Z M -81.516 204.945 C -79.346 204.945 -77.57 204.057 -76.189 202.281 C -74.808 200.44 -74.117 197.809 -74.117 194.389 C -74.117 190.904 -74.972 187.911 -76.682 185.412 C -78.392 182.847 -80.793 181.565 -83.884 181.565 C -86.515 181.565 -88.455 182.683 -89.704 184.919 C -90.954 187.089 -91.579 189.522 -91.579 192.219 C -91.579 196.296 -90.691 199.453 -88.915 201.689 C -87.139 203.86 -84.673 204.945 -81.516 204.945 Z M -93.749 232.37 C -93.749 235.724 -92.927 238.256 -91.283 239.966 C -89.573 241.676 -86.712 242.531 -82.7 242.531 C -78.359 242.531 -74.972 241.445 -72.539 239.275 C -70.04 237.105 -68.79 234.606 -68.79 231.778 C -68.79 230.068 -69.218 228.72 -70.073 227.733 C -70.862 226.747 -72.44 226.023 -74.808 225.563 C -77.11 225.103 -80.53 224.872 -85.068 224.872 C -87.106 224.872 -88.882 224.807 -90.395 224.675 C -91.644 225.727 -92.532 226.878 -93.058 228.128 C -93.519 229.377 -93.749 230.791 -93.749 232.37 Z M -29.651 224.083 C -34.124 224.083 -38.037 223.129 -41.391 221.222 C -44.745 219.249 -47.343 216.52 -49.184 213.034 C -51.026 209.483 -51.946 205.339 -51.946 200.604 C -51.946 196.132 -50.993 192.12 -49.086 188.569 C -47.178 185.017 -44.548 182.222 -41.193 180.183 C -37.839 178.145 -33.992 177.125 -29.651 177.125 C -24.982 177.125 -21.003 178.112 -17.715 180.085 C -14.36 182.058 -11.796 184.82 -10.02 188.371 C -8.244 191.857 -7.357 195.935 -7.357 200.604 C -7.357 205.076 -8.31 209.088 -10.217 212.64 C -12.059 216.191 -14.656 218.986 -18.011 221.025 C -21.299 223.064 -25.179 224.083 -29.651 224.083 Z M -28.862 219.348 C -24.916 219.348 -21.989 217.737 -20.082 214.514 C -18.175 211.226 -17.221 206.984 -17.221 201.788 C -17.221 197.71 -17.846 194.192 -19.096 191.232 C -20.28 188.207 -21.891 185.905 -23.93 184.327 C -25.968 182.683 -28.204 181.861 -30.638 181.861 C -34.452 181.861 -37.313 183.406 -39.22 186.497 C -41.062 189.588 -41.983 193.6 -41.983 198.533 C -41.983 205.175 -40.799 210.305 -38.431 213.922 C -36.064 217.539 -32.874 219.348 -28.862 219.348 Z M 22.853 224.083 C 18.381 224.083 14.468 223.129 11.113 221.222 C 7.759 219.249 5.162 216.52 3.32 213.034 C 1.479 209.483 0.558 205.339 0.558 200.604 C 0.558 196.132 1.511 192.12 3.419 188.569 C 5.326 185.017 7.957 182.222 11.311 180.183 C 14.665 178.145 18.512 177.125 22.853 177.125 C 27.522 177.125 31.501 178.112 34.79 180.085 C 38.144 182.058 40.709 184.82 42.484 188.371 C 44.26 191.857 45.148 195.935 45.148 200.604 C 45.148 205.076 44.194 209.088 42.287 212.64 C 40.446 216.191 37.848 218.986 34.494 221.025 C 31.205 223.064 27.325 224.083 22.853 224.083 Z M 23.642 219.348 C 27.588 219.348 30.515 217.737 32.422 214.514 C 34.329 211.226 35.283 206.984 35.283 201.788 C 35.283 197.71 34.658 194.192 33.409 191.232 C 32.225 188.207 30.613 185.905 28.575 184.327 C 26.536 182.683 24.3 181.861 21.866 181.861 C 18.052 181.861 15.191 183.406 13.284 186.497 C 11.442 189.588 10.522 193.6 10.522 198.533 C 10.522 205.175 11.705 210.305 14.073 213.922 C 16.441 217.539 19.63 219.348 23.642 219.348 Z M 94.693 209.779 C 94.693 212.081 95.022 213.791 95.68 214.909 C 96.403 215.961 98.113 216.487 100.809 216.487 C 100.809 217.145 100.777 217.901 100.711 218.756 C 100.645 219.545 100.481 220.301 100.218 221.025 C 98.573 221.091 96.666 221.42 94.496 222.011 C 92.326 222.538 90.484 223.228 88.971 224.083 C 88.314 223.754 87.722 223.294 87.196 222.702 C 86.735 222.044 86.505 220.597 86.505 218.361 C 86.505 217.375 86.571 216.487 86.702 215.698 C 86.834 214.909 87.031 213.889 87.294 212.64 C 86.834 213.692 86.406 214.547 86.012 215.205 C 85.617 215.862 85.288 216.388 85.025 216.783 C 84.433 217.769 83.48 218.822 82.164 219.94 C 80.915 221.058 79.369 222.044 77.528 222.899 C 75.752 223.689 73.746 224.083 71.51 224.083 C 65.723 224.083 61.185 222.34 57.896 218.855 C 54.674 215.303 53.062 209.746 53.062 202.183 C 53.062 197.579 54.082 193.403 56.121 189.654 C 58.159 185.839 61.02 182.814 64.703 180.578 C 68.386 178.276 72.694 177.125 77.627 177.125 C 79.205 177.125 80.619 177.257 81.869 177.52 C 83.118 177.717 84.433 178.046 85.815 178.506 L 85.815 166.471 C 85.815 164.893 85.65 163.61 85.321 162.624 C 85.058 161.571 84.401 160.782 83.348 160.256 C 82.296 159.73 80.652 159.467 78.416 159.467 C 78.416 157.954 78.712 156.737 79.304 155.817 C 80.29 155.817 81.671 155.652 83.447 155.323 C 85.223 154.995 86.965 154.567 88.675 154.041 C 90.451 153.515 91.734 152.989 92.523 152.463 C 93.115 152.66 93.608 153.054 94.003 153.646 C 94.463 154.238 94.693 155.159 94.693 156.409 L 94.693 209.779 Z M 62.829 200.9 C 62.829 205.109 63.454 208.463 64.703 210.963 C 65.953 213.396 67.433 215.172 69.143 216.29 C 70.852 217.342 72.431 217.868 73.878 217.868 C 75.851 217.868 77.725 217.276 79.501 216.092 C 81.342 214.843 82.855 212.837 84.039 210.075 C 85.223 207.312 85.815 203.629 85.815 199.026 L 85.815 185.116 C 84.697 184.13 83.447 183.307 82.066 182.65 C 80.685 181.992 79.041 181.663 77.133 181.663 C 75.752 181.663 74.24 181.959 72.595 182.551 C 71.017 183.077 69.471 184.031 67.959 185.412 C 66.446 186.793 65.197 188.733 64.21 191.232 C 63.289 193.732 62.829 196.954 62.829 200.9 Z M 301.128 223.491 C 301.128 222.834 301.161 222.143 301.226 221.42 C 301.292 220.63 301.424 219.907 301.621 219.249 C 304.252 219.249 306.027 218.657 306.948 217.473 C 307.935 216.224 308.428 213.955 308.428 210.667 L 308.428 191.134 C 308.428 189.555 308.264 188.273 307.935 187.286 C 307.672 186.234 307.014 185.445 305.962 184.919 C 304.909 184.393 303.265 184.129 301.029 184.129 C 301.029 182.617 301.325 181.4 301.917 180.479 C 302.904 180.479 304.285 180.315 306.06 179.986 C 307.902 179.657 309.678 179.23 311.387 178.704 C 313.097 178.178 314.347 177.651 315.136 177.125 C 315.728 177.323 316.221 177.717 316.616 178.309 C 317.076 178.901 317.307 179.822 317.307 181.071 L 317.307 210.667 C 317.307 213.955 317.734 216.224 318.589 217.473 C 319.51 218.657 321.022 219.249 323.127 219.249 C 323.324 219.907 323.456 220.663 323.522 221.518 C 323.587 222.373 323.62 223.031 323.62 223.491 C 321.91 223.36 320.102 223.261 318.194 223.195 C 316.287 223.195 314.38 223.195 312.473 223.195 C 310.631 223.195 308.691 223.195 306.652 223.195 C 304.613 223.261 302.772 223.36 301.128 223.491 Z M 312.078 165.978 C 310.434 165.978 309.053 165.419 307.935 164.301 C 306.817 163.183 306.258 161.834 306.258 160.256 C 306.258 158.48 306.85 157.033 308.033 155.915 C 309.217 154.797 310.565 154.238 312.078 154.238 C 313.854 154.238 315.268 154.797 316.32 155.915 C 317.438 157.033 317.997 158.48 317.997 160.256 C 317.997 161.769 317.405 163.117 316.221 164.301 C 315.103 165.419 313.722 165.978 312.078 165.978 Z M 362.171 180.578 C 362.105 182.156 362.04 183.834 361.974 185.609 C 361.974 187.385 362.105 189.128 362.368 190.838 C 361.119 191.627 359.475 192.022 357.436 192.022 C 357.304 190.18 356.745 188.437 355.759 186.793 C 354.838 185.149 353.588 183.801 352.01 182.748 C 350.432 181.696 348.557 181.17 346.387 181.17 C 344.348 181.17 342.704 181.663 341.454 182.65 C 340.271 183.636 339.679 184.952 339.679 186.596 C 339.679 187.714 339.909 188.7 340.369 189.555 C 340.895 190.41 341.981 191.331 343.625 192.318 C 345.335 193.238 347.932 194.389 351.418 195.77 C 354.97 197.086 357.765 198.401 359.803 199.716 C 361.842 201.032 363.289 202.511 364.144 204.156 C 364.999 205.8 365.427 207.806 365.427 210.173 C 365.427 212.936 364.637 215.369 363.059 217.473 C 361.481 219.578 359.31 221.222 356.548 222.406 C 353.852 223.524 350.793 224.083 347.373 224.083 C 343.427 224.083 340.271 223.787 337.903 223.195 C 335.601 222.538 333.332 221.617 331.096 220.433 C 331.228 219.381 331.293 218.098 331.293 216.586 C 331.359 215.073 331.392 213.56 331.392 212.048 C 331.392 210.535 331.326 209.253 331.195 208.2 C 331.721 207.806 332.444 207.543 333.365 207.411 C 334.352 207.214 335.338 207.115 336.325 207.115 C 336.851 211.258 338.133 214.35 340.172 216.388 C 342.211 218.427 344.94 219.447 348.36 219.447 C 351.056 219.447 353.128 218.855 354.575 217.671 C 356.088 216.487 356.844 214.974 356.844 213.133 C 356.844 211.949 356.548 210.93 355.956 210.075 C 355.43 209.22 354.411 208.365 352.898 207.51 C 351.385 206.655 349.149 205.635 346.19 204.452 C 342.638 203.005 339.777 201.656 337.607 200.407 C 335.502 199.157 333.957 197.678 332.97 195.968 C 332.05 194.258 331.589 192.087 331.589 189.457 C 331.589 187.352 332.115 185.543 333.168 184.031 C 334.22 182.452 335.568 181.17 337.212 180.183 C 338.922 179.131 340.731 178.375 342.638 177.914 C 344.545 177.388 346.321 177.125 347.965 177.125 C 350.925 177.125 353.523 177.421 355.759 178.013 C 357.995 178.605 360.132 179.46 362.171 180.578 Z M 404.367 180.578 C 404.302 182.156 404.236 183.834 404.17 185.609 C 404.17 187.385 404.302 189.128 404.565 190.838 C 403.315 191.627 401.671 192.022 399.632 192.022 C 399.501 190.18 398.942 188.437 397.955 186.793 C 397.034 185.149 395.785 183.801 394.206 182.748 C 392.628 181.696 390.754 181.17 388.583 181.17 C 386.545 181.17 384.9 181.663 383.651 182.65 C 382.467 183.636 381.875 184.952 381.875 186.596 C 381.875 187.714 382.105 188.7 382.566 189.555 C 383.092 190.41 384.177 191.331 385.821 192.318 C 387.531 193.238 390.129 194.389 393.615 195.77 C 397.166 197.086 399.961 198.401 402 199.716 C 404.039 201.032 405.486 202.511 406.341 204.156 C 407.195 205.8 407.623 207.806 407.623 210.173 C 407.623 212.936 406.834 215.369 405.255 217.473 C 403.677 219.578 401.507 221.222 398.744 222.406 C 396.048 223.524 392.99 224.083 389.57 224.083 C 385.624 224.083 382.467 223.787 380.099 223.195 C 377.798 222.538 375.529 221.617 373.292 220.433 C 373.424 219.381 373.49 218.098 373.49 216.586 C 373.556 215.073 373.588 213.56 373.588 212.048 C 373.588 210.535 373.523 209.253 373.391 208.2 C 373.917 207.806 374.641 207.543 375.561 207.411 C 376.548 207.214 377.534 207.115 378.521 207.115 C 379.047 211.258 380.33 214.35 382.368 216.388 C 384.407 218.427 387.136 219.447 390.556 219.447 C 393.253 219.447 395.324 218.855 396.771 217.671 C 398.284 216.487 399.04 214.974 399.04 213.133 C 399.04 211.949 398.744 210.93 398.152 210.075 C 397.626 209.22 396.607 208.365 395.094 207.51 C 393.582 206.655 391.346 205.635 388.386 204.452 C 384.835 203.005 381.974 201.656 379.803 200.407 C 377.699 199.157 376.153 197.678 375.167 195.968 C 374.246 194.258 373.786 192.087 373.786 189.457 C 373.786 187.352 374.312 185.543 375.364 184.031 C 376.416 182.452 377.765 181.17 379.409 180.183 C 381.119 179.131 382.927 178.375 384.835 177.914 C 386.742 177.388 388.518 177.125 390.162 177.125 C 393.121 177.125 395.719 177.421 397.955 178.013 C 400.191 178.605 402.329 179.46 404.367 180.578 Z M 433.739 223.59 C 429.333 223.59 425.88 222.307 423.381 219.742 C 420.882 217.178 419.632 212.607 419.632 206.03 L 419.632 191.134 C 419.632 188.832 419.303 187.122 418.646 186.004 C 417.988 184.82 416.147 184.195 413.121 184.129 C 413.121 183.406 413.154 182.781 413.22 182.255 C 413.351 181.663 413.549 181.071 413.812 180.479 C 415.851 180.348 418.054 179.953 420.421 179.296 C 422.855 178.638 424.828 177.914 426.34 177.125 C 426.932 177.323 427.426 177.75 427.82 178.408 C 428.281 179 428.511 180.019 428.511 181.466 L 428.511 203.86 C 428.511 208.266 429.103 211.653 430.287 214.021 C 431.536 216.388 433.674 217.572 436.699 217.572 C 439.987 217.572 442.717 216.191 444.887 213.429 C 447.123 210.667 448.241 206.425 448.241 200.703 L 448.241 190.64 C 448.241 188.339 447.813 186.629 446.959 185.511 C 446.169 184.327 444.131 183.702 440.842 183.636 C 440.842 182.913 440.875 182.288 440.941 181.762 C 441.007 181.17 441.204 180.578 441.533 179.986 C 444.098 179.855 446.597 179.526 449.03 179 C 451.529 178.408 453.502 177.783 454.949 177.125 C 455.541 177.323 456.034 177.75 456.429 178.408 C 456.889 179 457.12 180.019 457.12 181.466 L 457.12 209.779 C 457.12 212.081 457.448 213.791 458.106 214.909 C 458.829 215.961 460.539 216.487 463.236 216.487 C 463.236 217.145 463.203 217.901 463.137 218.756 C 463.071 219.545 462.907 220.301 462.644 221.025 C 461 221.091 459.093 221.42 456.922 222.011 C 454.752 222.538 452.91 223.228 451.398 224.083 C 450.74 223.754 450.148 223.294 449.622 222.702 C 449.162 222.044 448.932 220.597 448.932 218.361 C 448.932 217.901 448.932 217.342 448.932 216.684 C 448.997 216.027 449.096 215.205 449.227 214.218 C 448.833 215.007 448.373 215.764 447.846 216.487 C 447.32 217.21 446.728 217.901 446.071 218.559 C 444.361 220.269 442.552 221.551 440.645 222.406 C 438.738 223.195 436.436 223.59 433.739 223.59 Z M 492.087 224.083 C 487.417 224.083 483.537 223.031 480.446 220.926 C 477.355 218.822 475.02 215.994 473.442 212.442 C 471.929 208.825 471.173 204.879 471.173 200.604 C 471.173 196.395 471.995 192.515 473.639 188.963 C 475.283 185.412 477.618 182.551 480.643 180.381 C 483.734 178.21 487.384 177.125 491.593 177.125 C 495.868 177.125 499.288 178.046 501.853 179.888 C 504.484 181.729 506.424 184.195 507.673 187.286 C 508.989 190.377 509.778 193.797 510.041 197.546 C 509.778 198.861 509.285 199.979 508.561 200.9 C 507.18 200.9 504.944 200.9 501.853 200.9 C 498.828 200.9 495.441 200.933 491.692 200.999 C 487.943 201.065 484.359 201.196 480.939 201.393 C 481.136 204.287 481.695 207.049 482.616 209.68 C 483.537 212.311 485.017 214.448 487.055 216.092 C 489.094 217.737 491.824 218.559 495.243 218.559 C 497.414 218.559 499.551 218.065 501.656 217.079 C 503.76 216.092 505.635 214.678 507.279 212.837 C 507.805 213.1 508.298 213.56 508.759 214.218 C 509.285 214.81 509.581 215.369 509.646 215.895 C 507.41 218.855 504.813 220.959 501.853 222.209 C 498.959 223.458 495.704 224.083 492.087 224.083 Z M 490.705 181.861 C 489.193 181.861 487.713 182.288 486.266 183.143 C 484.819 183.998 483.603 185.478 482.616 187.582 C 481.63 189.687 481.038 192.646 480.84 196.461 L 499.781 196.461 C 499.781 192.12 498.992 188.602 497.414 185.905 C 495.835 183.209 493.599 181.861 490.705 181.861 Z" fill="white"></path>
  <path d="M 119.222 247.66 C 116.131 247.66 113.205 246.477 110.443 244.109 C 110.377 243.057 110.41 242.004 110.541 240.952 C 110.673 239.966 110.87 239.045 111.133 238.19 C 112.646 238.65 114.356 239.012 116.263 239.275 C 118.104 239.604 120.045 239.768 122.083 239.768 C 123.201 239.768 124.155 239.571 124.944 239.176 C 125.799 238.782 126.556 237.861 127.213 236.414 C 127.871 235.033 128.529 232.83 129.186 229.805 C 129.844 226.78 130.567 222.636 131.357 217.375 C 132.08 212.508 132.771 207.345 133.428 201.887 C 134.152 196.428 135.04 190.279 136.092 183.439 C 134.974 183.307 133.79 183.176 132.54 183.044 C 131.357 182.913 130.206 182.847 129.088 182.847 C 129.088 181.334 129.449 180.052 130.173 179 L 136.782 179 C 138.032 172.423 139.906 167.227 142.405 163.413 C 144.97 159.598 147.93 156.869 151.284 155.225 C 154.638 153.581 158.091 152.759 161.642 152.759 C 165.457 152.759 168.614 153.087 171.113 153.745 C 173.678 154.337 175.914 155.258 177.821 156.507 C 177.229 158.086 176.769 159.631 176.44 161.144 C 176.177 162.656 175.98 164.202 175.848 165.78 C 174.862 166.307 173.513 166.668 171.803 166.866 C 170.093 166.997 168.581 166.931 167.265 166.668 C 167.134 163.314 166.476 160.848 165.292 159.269 C 164.174 157.691 162.432 156.902 160.064 156.902 C 157.696 156.902 155.756 157.527 154.244 158.776 C 152.797 159.96 151.481 162.163 150.298 165.386 C 149.179 168.543 147.93 173.081 146.549 179 L 151.679 179 C 155.296 179 158.19 178.934 160.36 178.802 C 162.53 178.671 164.24 178.474 165.49 178.21 C 166.805 177.882 167.857 177.52 168.647 177.125 C 170.685 177.98 171.902 179.427 172.297 181.466 C 172.757 183.439 172.428 186.464 171.31 190.542 L 165.884 209.581 C 164.964 212.804 164.569 214.876 164.701 215.796 C 164.898 216.717 165.457 217.178 166.378 217.178 C 167.035 217.178 167.792 216.947 168.647 216.487 C 169.567 216.027 170.521 215.303 171.507 214.317 C 172.494 214.974 173.086 216.027 173.283 217.473 C 171.376 219.512 169.469 221.124 167.561 222.307 C 165.72 223.491 163.878 224.083 162.037 224.083 C 158.749 224.083 156.71 222.768 155.921 220.137 C 155.197 217.506 155.427 214.086 156.611 209.877 L 160.656 195.672 C 161.642 192.186 162.201 189.522 162.333 187.681 C 162.464 185.839 162.004 184.59 160.952 183.932 C 159.965 183.209 158.19 182.847 155.625 182.847 C 153.652 182.847 151.843 182.946 150.199 183.143 C 148.62 183.275 147.108 183.439 145.661 183.636 C 144.543 190.016 143.589 195.606 142.8 200.407 C 142.077 205.208 141.485 208.924 141.024 211.554 C 139.841 218.592 138.229 224.807 136.19 230.199 C 134.152 235.658 131.685 239.933 128.792 243.024 C 125.964 246.115 122.774 247.66 119.222 247.66 Z M 195.119 177.125 C 197.092 177.783 197.75 179.888 197.092 183.439 C 196.5 186.727 195.053 191.068 192.751 196.461 L 192.949 196.461 L 194.626 192.811 C 196.862 188.141 199.032 184.36 201.137 181.466 C 203.307 178.572 205.839 177.125 208.733 177.125 C 210.64 177.125 212.317 177.717 213.764 178.901 C 213.172 180.742 212.679 182.65 212.284 184.623 C 211.89 186.596 211.594 188.503 211.396 190.345 C 210.147 190.936 208.535 191.199 206.562 191.134 C 206.694 188.832 206.661 187.319 206.464 186.596 C 206.267 185.807 205.938 185.412 205.477 185.412 C 204.82 185.412 203.866 186.07 202.616 187.385 C 201.433 188.635 200.019 190.805 198.374 193.896 C 197.322 195.935 196.04 198.828 194.527 202.577 C 193.08 206.26 191.962 210.206 191.173 214.415 L 189.496 223.195 L 180.42 223.195 L 185.944 194.488 C 186.536 191.397 186.832 189.194 186.832 187.878 C 186.898 186.563 186.471 185.741 185.55 185.412 C 184.695 185.083 183.215 184.919 181.111 184.919 C 181.111 184.195 181.143 183.505 181.209 182.847 C 181.341 182.189 181.538 181.63 181.801 181.17 C 182.853 181.038 184.234 180.775 185.944 180.381 C 187.72 179.92 189.463 179.394 191.173 178.802 C 192.883 178.145 194.198 177.586 195.119 177.125 Z M 233.54 177.125 C 235.974 177.125 238.341 177.421 240.643 178.013 C 242.945 178.605 244.819 179.361 246.266 180.282 C 245.148 183.636 244.524 187.188 244.392 190.936 C 243.734 191.265 242.978 191.495 242.123 191.627 C 241.334 191.759 240.479 191.824 239.558 191.824 C 239.558 187.944 238.999 185.313 237.881 183.932 C 236.763 182.485 235.086 181.762 232.85 181.762 C 230.943 181.762 229.463 182.156 228.411 182.946 C 227.424 183.669 226.799 184.59 226.536 185.708 C 226.142 187.418 226.47 188.996 227.523 190.443 C 228.641 191.89 230.055 193.37 231.765 194.882 C 233.54 196.329 235.283 197.908 236.993 199.618 C 238.703 201.328 240.018 203.301 240.939 205.537 C 241.86 207.773 242.024 210.404 241.432 213.429 C 240.709 217.046 239.032 219.742 236.401 221.518 C 233.771 223.228 230.449 224.083 226.438 224.083 C 223.412 224.083 220.716 223.689 218.348 222.899 C 215.981 222.044 214.106 221.156 212.725 220.236 C 213.317 218.131 213.712 216.191 213.909 214.415 C 214.172 212.64 214.336 210.995 214.402 209.483 C 215.915 208.759 217.493 208.463 219.137 208.595 C 219.006 211.818 219.499 214.448 220.617 216.487 C 221.735 218.526 223.873 219.545 227.029 219.545 C 229.002 219.545 230.515 219.183 231.567 218.46 C 232.685 217.671 233.376 216.684 233.639 215.5 C 233.968 213.856 233.606 212.311 232.554 210.864 C 231.567 209.351 230.219 207.839 228.509 206.326 C 226.865 204.748 225.221 203.07 223.577 201.295 C 221.998 199.453 220.749 197.414 219.828 195.178 C 218.907 192.942 218.743 190.377 219.335 187.484 C 219.992 184.195 221.538 181.663 223.971 179.888 C 226.405 178.046 229.594 177.125 233.54 177.125 Z M 262.955 224.083 C 258.811 224.083 256.082 222.505 254.766 219.348 C 253.517 216.125 253.714 210.963 255.358 203.86 L 259.995 183.439 C 258.811 183.307 257.594 183.176 256.345 183.044 C 255.095 182.913 253.879 182.847 252.695 182.847 C 252.695 181.334 253.057 180.052 253.78 179 L 261.08 179 L 261.277 178.013 C 262.001 174.988 262.593 172.324 263.053 170.022 C 263.514 167.655 263.777 165.78 263.842 164.399 C 265.158 164.202 266.539 163.906 267.986 163.511 C 269.498 163.051 270.715 162.558 271.636 162.032 C 272.162 162.295 272.524 162.755 272.721 163.413 C 272.918 164.07 272.918 165.221 272.721 166.866 C 272.524 168.444 272.03 170.877 271.241 174.166 L 270.156 179 L 281.304 179 C 281.304 180.578 281.073 181.861 280.613 182.847 C 277.917 182.847 275.648 182.913 273.806 183.044 C 271.965 183.176 270.386 183.34 269.071 183.538 L 264.434 203.169 C 263.185 208.562 262.823 212.377 263.349 214.613 C 263.941 216.849 265.059 217.967 266.703 217.967 C 267.821 217.967 269.038 217.539 270.353 216.684 C 271.734 215.829 272.951 214.777 274.003 213.527 C 275.121 214.185 275.812 215.237 276.075 216.684 C 274.76 218.394 272.885 220.071 270.452 221.715 C 268.084 223.294 265.585 224.083 262.955 224.083 Z" style="fill: rgb(203, 51, 100);"></path>
</svg>
