<?xml version="1.0" encoding="UTF-8"?>
<svg width="1051" height="140" viewBox="-88.327 119.07 1051 140" xmlns="http://www.w3.org/2000/svg">
<path d="m-88.327 119.07h1051v140h-1051z" fill="#0F1218"/>
<path d="M150.265 200.354c-2.697 0-5.23-.428-7.597-1.283-.855.92-1.48 1.776-1.874 2.565-.395.79-.592 1.48-.592 2.072 0 1.184.296 2.071.888 2.663.658.592 2.006.987 4.045 1.184 2.039.197 5.162.296 9.372.296 6.642 0 11.279.822 13.909 2.466 2.63 1.645 3.946 4.473 3.946 8.484 0 2.236-.624 4.505-1.874 6.807-1.184 2.368-2.861 4.505-5.031 6.412-2.171 1.973-4.768 3.552-7.794 4.736-2.96 1.25-6.215 1.874-9.766 1.874-6.051 0-10.424-1.15-13.121-3.453-2.696-2.236-4.044-5.524-4.044-9.865 0-2.499.624-4.669 1.874-6.51 1.315-1.776 3.124-3.157 5.426-4.144-1.842-.592-3.091-1.48-3.75-2.664-.657-1.25-.985-2.795-.985-4.636 0-1.842.46-3.65 1.38-5.426.987-1.841 2.27-3.518 3.848-5.031-1.841-1.315-3.354-3.025-4.538-5.13-1.118-2.105-1.677-4.57-1.677-7.399 0-3.025.658-5.754 1.973-8.188 1.315-2.499 3.288-4.472 5.919-5.919 2.697-1.512 5.985-2.269 9.865-2.269 2.236 0 4.308.296 6.215.888h16.179c.263.855.428 1.842.493 2.96a25.34 25.34 0 0 1 .198 3.156c-1.25-.328-2.796-.624-4.637-.887a52.003 52.003 0 0 0-4.933-.691c1.579 1.644 2.73 3.42 3.453 5.327.724 1.907 1.085 3.584 1.085 5.031 0 3.026-.69 5.82-2.071 8.386-1.316 2.499-3.322 4.505-6.018 6.017-2.631 1.447-5.886 2.17-9.766 2.17Zm1.183-4.538c2.17 0 3.946-.888 5.328-2.664 1.38-1.841 2.07-4.472 2.07-7.892 0-3.486-.854-6.478-2.564-8.977-1.71-2.565-4.11-3.848-7.201-3.848-2.631 0-4.571 1.119-5.821 3.355-1.25 2.17-1.874 4.603-1.874 7.3 0 4.077.888 7.234 2.664 9.47 1.775 2.17 4.242 3.256 7.398 3.256Zm-12.232 27.425c0 3.354.822 5.886 2.466 7.596 1.71 1.71 4.57 2.565 8.583 2.565 4.34 0 7.727-1.086 10.16-3.256 2.5-2.17 3.749-4.669 3.749-7.497 0-1.71-.427-3.059-1.282-4.045-.79-.986-2.368-1.71-4.735-2.17-2.302-.46-5.722-.69-10.26-.69-2.04 0-3.815-.067-5.327-.198-1.25 1.052-2.138 2.203-2.664 3.453-.46 1.25-.69 2.663-.69 4.242Zm64.097-8.287c-4.472 0-8.385-.954-11.74-2.86-3.353-1.974-5.951-4.703-7.793-8.189-1.841-3.551-2.762-7.695-2.762-12.43 0-4.472.954-8.484 2.86-12.035 1.908-3.552 4.539-6.347 7.893-8.386 3.354-2.038 7.202-3.058 11.542-3.058 4.67 0 8.649.987 11.937 2.96 3.354 1.973 5.919 4.735 7.695 8.286 1.776 3.486 2.663 7.564 2.663 12.233 0 4.472-.953 8.484-2.86 12.036-1.842 3.55-4.44 6.346-7.794 8.385-3.288 2.039-7.17 3.058-11.641 3.058Zm.79-4.735c3.946 0 6.872-1.612 8.779-4.834 1.908-3.288 2.86-7.53 2.86-12.726 0-4.078-.623-7.596-1.873-10.556-1.184-3.025-2.795-5.327-4.834-6.905-2.04-1.644-4.275-2.467-6.708-2.467-3.815 0-6.676 1.546-8.583 4.637-1.841 3.091-2.762 7.103-2.762 12.035 0 6.643 1.184 11.773 3.55 15.39 2.369 3.617 5.559 5.426 9.57 5.426Zm51.715 4.735c-4.472 0-8.385-.954-11.74-2.86-3.354-1.974-5.951-4.703-7.793-8.189-1.841-3.551-2.762-7.695-2.762-12.43 0-4.472.953-8.484 2.86-12.035 1.908-3.552 4.539-6.347 7.893-8.386 3.354-2.038 7.2-3.058 11.542-3.058 4.669 0 8.648.987 11.937 2.96 3.354 1.973 5.919 4.735 7.694 8.286 1.776 3.486 2.664 7.564 2.664 12.233 0 4.472-.954 8.484-2.861 12.036-1.841 3.55-4.44 6.346-7.793 8.385-3.29 2.039-7.17 3.058-11.641 3.058Zm.789-4.735c3.946 0 6.873-1.612 8.78-4.834 1.907-3.288 2.86-7.53 2.86-12.726 0-4.078-.624-7.596-1.873-10.556-1.184-3.025-2.796-5.327-4.834-6.905-2.04-1.644-4.275-2.467-6.71-2.467-3.813 0-6.674 1.546-8.581 4.637-1.842 3.091-2.762 7.103-2.762 12.035 0 6.643 1.183 11.773 3.55 15.39 2.369 3.617 5.558 5.426 9.57 5.426Zm71.05-9.57c0 2.302.33 4.012.988 5.13.723 1.053 2.433 1.579 5.129 1.579 0 .658-.032 1.414-.098 2.269a8.743 8.743 0 0 1-.493 2.269c-1.645.066-3.552.394-5.722.986-2.17.526-4.012 1.217-5.525 2.072a5.905 5.905 0 0 1-1.775-1.381c-.461-.658-.691-2.105-.691-4.34 0-.987.066-1.875.197-2.664.132-.79.329-1.809.592-3.058-.46 1.052-.888 1.907-1.282 2.564a41.315 41.315 0 0 1-.987 1.579c-.592.986-1.545 2.039-2.861 3.157-1.25 1.118-2.795 2.104-4.636 2.96-1.776.788-3.782 1.183-6.018 1.183-5.787 0-10.325-1.743-13.614-5.228-3.222-3.552-4.834-9.11-4.834-16.672 0-4.604 1.02-8.78 3.059-12.53 2.038-3.814 4.899-6.839 8.582-9.075 3.683-2.302 7.99-3.453 12.924-3.453 1.578 0 2.992.132 4.242.395 1.249.197 2.564.526 3.946.986v-12.035c0-1.579-.165-2.861-.494-3.847-.263-1.053-.92-1.842-1.973-2.368-1.052-.526-2.696-.79-4.932-.79 0-1.512.296-2.729.888-3.65.986 0 2.367-.164 4.143-.493a46.601 46.601 0 0 0 5.228-1.282c1.776-.526 3.059-1.052 3.848-1.579.592.198 1.085.592 1.48 1.184.46.592.69 1.513.69 2.763v53.37Zm-31.863-8.878c0 4.21.625 7.563 1.874 10.062 1.25 2.434 2.73 4.21 4.44 5.328 1.709 1.052 3.288 1.578 4.735 1.578 1.973 0 3.847-.592 5.623-1.776 1.84-1.25 3.354-3.255 4.538-6.017 1.184-2.763 1.776-6.446 1.776-11.05v-13.91a16.09 16.09 0 0 0-3.75-2.465c-1.38-.658-3.024-.987-4.932-.987-1.381 0-2.893.296-4.538.888-1.578.526-3.124 1.48-4.636 2.86-1.513 1.382-2.762 3.322-3.75 5.821-.92 2.5-1.38 5.722-1.38 9.668Zm238.299 22.591c0-.658.033-1.348.098-2.072a10.66 10.66 0 0 1 .395-2.17c2.63 0 4.406-.592 5.327-1.776.987-1.25 1.48-3.518 1.48-6.807v-19.532c0-1.579-.164-2.861-.493-3.848-.263-1.052-.921-1.841-1.973-2.367-1.053-.527-2.697-.79-4.933-.79 0-1.512.296-2.729.888-3.65.987 0 2.368-.164 4.143-.493a44.922 44.922 0 0 0 5.327-1.282c1.71-.527 2.96-1.053 3.749-1.579.592.197 1.085.592 1.48 1.184.46.592.69 1.513.69 2.762v29.595c0 3.289.428 5.558 1.283 6.807.92 1.184 2.433 1.776 4.538 1.776.197.658.329 1.414.395 2.269.065.855.098 1.513.098 1.973a128.61 128.61 0 0 0-5.426-.296h-11.542c-2.04.066-3.88.165-5.524.296Zm10.95-57.513c-1.644 0-3.025-.56-4.143-1.677-1.118-1.118-1.677-2.467-1.677-4.045 0-1.776.592-3.223 1.775-4.34 1.184-1.119 2.532-1.678 4.045-1.678 1.776 0 3.19.56 4.242 1.677 1.118 1.118 1.677 2.565 1.677 4.34 0 1.514-.592 2.862-1.776 4.046-1.118 1.118-2.5 1.677-4.143 1.677Zm50.093 14.6c-.066 1.578-.131 3.255-.197 5.031 0 1.776.13 3.519.394 5.229-1.25.789-2.893 1.183-4.932 1.183-.132-1.841-.691-3.584-1.677-5.228a11.632 11.632 0 0 0-3.75-4.045c-1.577-1.052-3.452-1.578-5.622-1.578-2.04 0-3.683.493-4.933 1.48-1.183.986-1.775 2.301-1.775 3.946 0 1.118.23 2.104.69 2.96.526.854 1.612 1.775 3.256 2.761 1.71.921 4.307 2.072 7.793 3.453 3.552 1.316 6.347 2.63 8.385 3.946 2.039 1.316 3.486 2.795 4.34 4.44.856 1.644 1.284 3.65 1.284 6.017 0 2.762-.79 5.196-2.368 7.3-1.578 2.105-3.75 3.75-6.511 4.933-2.696 1.118-5.755 1.677-9.175 1.677-3.946 0-7.102-.296-9.47-.888a35.202 35.202 0 0 1-6.807-2.762c.132-1.052.197-2.335.197-3.847.066-1.513.099-3.026.099-4.538 0-1.513-.066-2.796-.197-3.848.526-.394 1.249-.657 2.17-.789a15.062 15.062 0 0 1 2.96-.296c.526 4.143 1.808 7.234 3.847 9.273 2.039 2.039 4.768 3.058 8.188 3.058 2.696 0 4.768-.591 6.215-1.775 1.513-1.184 2.269-2.697 2.269-4.538 0-1.184-.296-2.203-.888-3.058-.526-.855-1.545-1.71-3.058-2.565s-3.75-1.875-6.708-3.059c-3.552-1.446-6.413-2.795-8.583-4.044-2.105-1.25-3.65-2.73-4.637-4.44-.92-1.71-1.381-3.88-1.381-6.51 0-2.105.526-3.914 1.579-5.426a12.567 12.567 0 0 1 4.044-3.848 18.65 18.65 0 0 1 5.426-2.269c1.907-.526 3.683-.789 5.327-.789 2.96 0 5.558.296 7.794.888a28.411 28.411 0 0 1 6.412 2.565Zm42.196 0c-.065 1.578-.131 3.255-.197 5.031 0 1.776.132 3.519.395 5.229-1.25.789-2.894 1.183-4.933 1.183-.131-1.841-.69-3.584-1.677-5.228a11.622 11.622 0 0 0-3.75-4.045c-1.577-1.052-3.451-1.578-5.622-1.578-2.038 0-3.683.493-4.932 1.48-1.184.986-1.776 2.301-1.776 3.946 0 1.118.23 2.104.69 2.96.527.854 1.612 1.775 3.256 2.761 1.71.921 4.308 2.072 7.794 3.453 3.55 1.316 6.346 2.63 8.385 3.946 2.039 1.316 3.486 2.795 4.34 4.44.855 1.644 1.283 3.65 1.283 6.017 0 2.762-.79 5.196-2.368 7.3-1.578 2.105-3.748 3.75-6.511 4.933-2.696 1.118-5.754 1.677-9.174 1.677-3.946 0-7.103-.296-9.471-.888a35.253 35.253 0 0 1-6.807-2.762c.132-1.052.198-2.335.198-3.847.066-1.513.098-3.026.098-4.538 0-1.513-.065-2.796-.197-3.848.526-.394 1.25-.657 2.17-.789a15.062 15.062 0 0 1 2.96-.296c.526 4.143 1.809 7.234 3.847 9.273 2.039 2.039 4.768 3.058 8.188 3.058 2.697 0 4.768-.591 6.215-1.775 1.513-1.184 2.269-2.697 2.269-4.538 0-1.184-.296-2.203-.888-3.058-.526-.855-1.545-1.71-3.058-2.565-1.512-.855-3.748-1.875-6.708-3.059-3.551-1.446-6.412-2.795-8.583-4.044-2.104-1.25-3.65-2.73-4.636-4.44-.921-1.71-1.381-3.88-1.381-6.51 0-2.105.526-3.914 1.578-5.426a12.57 12.57 0 0 1 4.045-3.848 18.64 18.64 0 0 1 5.426-2.269c1.907-.526 3.683-.789 5.327-.789 2.959 0 5.557.296 7.793.888a28.392 28.392 0 0 1 6.412 2.565Zm29.372 43.012c-4.406 0-7.86-1.283-10.358-3.848-2.5-2.565-3.75-7.135-3.75-13.712v-14.896c0-2.302-.328-4.012-.985-5.13-.658-1.184-2.5-1.809-5.525-1.875 0-.723.033-1.348.099-1.874a9.347 9.347 0 0 1 .592-1.776c2.039-.131 4.242-.526 6.609-1.183 2.434-.658 4.407-1.382 5.919-2.17.592.196 1.086.624 1.48 1.282.46.592.69 1.61.69 3.058v22.394c0 4.406.593 7.793 1.777 10.16 1.249 2.368 3.387 3.552 6.412 3.552 3.288 0 6.018-1.381 8.188-4.143 2.236-2.763 3.354-7.005 3.354-12.726V181.51c0-2.301-.428-4.011-1.282-5.13-.79-1.183-2.828-1.808-6.117-1.874 0-.723.033-1.348.099-1.874a4.722 4.722 0 0 1 .592-1.776 46.737 46.737 0 0 0 7.497-.986c2.499-.592 4.472-1.217 5.919-1.875.592.197 1.085.625 1.48 1.283.46.592.69 1.61.69 3.058v28.313c0 2.301.329 4.011.987 5.13.723 1.052 2.433 1.578 5.13 1.578 0 .658-.033 1.414-.1 2.269a8.743 8.743 0 0 1-.492 2.269c-1.644.066-3.551.394-5.722.986-2.17.526-4.012 1.217-5.524 2.072a5.896 5.896 0 0 1-1.776-1.381c-.46-.658-.69-2.105-.69-4.34v-1.678c.065-.657.164-1.48.295-2.466-.394.79-.854 1.545-1.381 2.269a17.46 17.46 0 0 1-1.775 2.072c-1.71 1.71-3.52 2.992-5.426 3.847-1.907.79-4.21 1.184-6.906 1.184Zm58.348.493c-4.67 0-8.55-1.052-11.641-3.157-3.091-2.104-5.426-4.932-7.004-8.484-1.513-3.617-2.27-7.563-2.27-11.838 0-4.21.823-8.09 2.467-11.64 1.644-3.552 3.979-6.413 7.004-8.583 3.09-2.17 6.74-3.256 10.95-3.256 4.275 0 7.695.92 10.26 2.762 2.63 1.842 4.57 4.308 5.82 7.4 1.316 3.09 2.105 6.51 2.368 10.259-.263 1.315-.756 2.433-1.48 3.354h-6.708c-3.025 0-6.412.033-10.161.099-3.75.065-7.333.197-10.753.394a31.417 31.417 0 0 0 1.677 8.287c.92 2.63 2.4 4.768 4.439 6.412 2.039 1.644 4.769 2.467 8.188 2.467 2.17 0 4.308-.494 6.413-1.48 2.104-.987 3.979-2.4 5.623-4.242.526.263 1.019.723 1.48 1.38.526.593.822 1.152.887 1.678-2.236 2.96-4.833 5.064-7.793 6.314-2.894 1.25-6.15 1.874-9.766 1.874Zm-1.382-42.223c-1.512 0-2.992.428-4.44 1.283-1.446.855-2.662 2.335-3.65 4.44-.985 2.104-1.577 5.063-1.775 8.878h18.94c0-4.34-.788-7.86-2.366-10.556-1.58-2.696-3.815-4.045-6.71-4.045Z" fill="#fff"/>
<path transform="translate(-88.327 119.07)" d="M440.514 119.465c-3.091 0-6.017-1.183-8.779-3.551a16.925 16.925 0 0 1 .098-3.157c.132-.986.329-1.907.592-2.762 1.513.46 3.223.822 5.13 1.085 1.841.329 3.782.493 5.82.493 1.118 0 2.072-.197 2.861-.592.855-.394 1.612-1.315 2.269-2.762.658-1.381 1.316-3.584 1.973-6.609.658-3.026 1.381-7.169 2.171-12.43a565.337 565.337 0 0 0 2.071-15.489 907.223 907.223 0 0 1 2.664-18.447 291.899 291.899 0 0 0-3.552-.395 31.253 31.253 0 0 0-3.452-.197c0-1.513.361-2.795 1.085-3.848h6.609c1.25-6.576 3.124-11.772 5.623-15.586 2.565-3.815 5.525-6.544 8.879-8.189 3.354-1.644 6.807-2.466 10.358-2.466 3.815 0 6.972.33 9.471.987 2.565.592 4.801 1.512 6.708 2.762a33.469 33.469 0 0 0-1.381 4.637 52.69 52.69 0 0 0-.592 4.636c-.986.526-2.335.888-4.045 1.085-1.71.132-3.222.066-4.538-.197-.131-3.354-.789-5.82-1.973-7.399-1.118-1.578-2.86-2.367-5.228-2.367s-4.308.624-5.82 1.874c-1.447 1.184-2.763 3.387-3.946 6.61-1.119 3.156-2.368 7.694-3.749 13.613h5.13c3.617 0 6.511-.065 8.681-.197 2.17-.131 3.88-.329 5.13-.592 1.315-.329 2.367-.69 3.157-1.085 2.038.855 3.255 2.302 3.65 4.34.46 1.974.131 4.999-.987 9.077l-5.426 19.04c-.92 3.222-1.315 5.293-1.183 6.214.197.92.756 1.381 1.677 1.381.657 0 1.414-.23 2.269-.69.92-.46 1.874-1.184 2.86-2.17.987.657 1.579 1.71 1.776 3.156-1.907 2.039-3.814 3.65-5.722 4.834-1.841 1.184-3.683 1.776-5.524 1.776-3.288 0-5.327-1.316-6.116-3.946-.724-2.63-.494-6.05.69-10.26l4.045-14.206c.986-3.485 1.545-6.149 1.677-7.99.131-1.842-.329-3.091-1.381-3.75-.987-.722-2.762-1.084-5.327-1.084-1.973 0-3.782.098-5.426.296a87.257 87.257 0 0 0-4.538.493c-1.118 6.38-2.072 11.97-2.861 16.77-.723 4.802-1.315 8.517-1.776 11.148-1.183 7.037-2.795 13.252-4.834 18.645-2.038 5.459-4.505 9.734-7.398 12.825-2.828 3.091-6.018 4.636-9.57 4.636Zm75.897-70.535c1.973.658 2.631 2.762 1.973 6.314-.592 3.288-2.039 7.629-4.341 13.022h.198l1.677-3.65c2.236-4.67 4.406-8.452 6.511-11.345 2.17-2.894 4.702-4.341 7.596-4.341 1.907 0 3.584.592 5.031 1.776a52.088 52.088 0 0 0-1.48 5.721 64.414 64.414 0 0 0-.888 5.722c-1.249.592-2.861.855-4.834.79.132-2.302.099-3.815-.098-4.538-.197-.79-.526-1.184-.987-1.184-.657 0-1.611.657-2.861 1.973-1.183 1.25-2.597 3.42-4.242 6.51-1.052 2.04-2.334 4.933-3.847 8.682-1.447 3.683-2.565 7.629-3.354 11.838L510.788 95h-9.076l5.524-28.707c.592-3.092.888-5.295.888-6.61.066-1.315-.361-2.138-1.282-2.466-.855-.33-2.335-.493-4.439-.493 0-.724.032-1.414.098-2.072.132-.658.329-1.217.592-1.677 1.052-.132 2.433-.395 4.143-.79a68.628 68.628 0 0 0 5.229-1.578c1.71-.658 3.025-1.217 3.946-1.677Zm38.421 0a28.4 28.4 0 0 1 7.103.888c2.302.592 4.176 1.348 5.623 2.269-1.118 3.354-1.742 6.905-1.874 10.654-.658.329-1.414.56-2.269.69-.789.132-1.644.198-2.565.198 0-3.88-.559-6.51-1.677-7.892-1.118-1.447-2.795-2.17-5.031-2.17-1.907 0-3.387.394-4.439 1.183-.987.724-1.612 1.645-1.875 2.763-.394 1.71-.066 3.288.987 4.735 1.118 1.447 2.532 2.927 4.242 4.44a69.55 69.55 0 0 1 5.228 4.734 17.966 17.966 0 0 1 3.946 5.92c.921 2.236 1.085 4.866.493 7.892-.723 3.617-2.4 6.313-5.031 8.089-2.63 1.71-5.952 2.565-9.963 2.565-3.026 0-5.722-.395-8.09-1.184-2.367-.855-4.242-1.743-5.623-2.663.592-2.105.987-4.045 1.184-5.82a48.19 48.19 0 0 0 .493-4.934 9.11 9.11 0 0 1 4.735-.887c-.131 3.222.362 5.853 1.48 7.892 1.118 2.038 3.256 3.058 6.412 3.058 1.973 0 3.486-.362 4.538-1.085 1.118-.79 1.809-1.776 2.072-2.96.329-1.644-.033-3.19-1.085-4.636-.987-1.513-2.335-3.026-4.045-4.538a119.796 119.796 0 0 1-4.932-5.031 22.504 22.504 0 0 1-3.749-6.117c-.921-2.236-1.085-4.8-.493-7.695.657-3.288 2.203-5.82 4.636-7.596 2.434-1.841 5.623-2.762 9.569-2.762Zm29.415 46.958c-4.144 0-6.873-1.579-8.189-4.735-1.249-3.223-1.052-8.386.592-15.489l4.637-20.42a642.957 642.957 0 0 0-3.65-.395 34.88 34.88 0 0 0-3.65-.197c0-1.513.362-2.795 1.085-3.848h7.3l.197-.986a220.65 220.65 0 0 0 1.776-7.99c.461-2.368.724-4.243.789-5.624a36.18 36.18 0 0 0 4.144-.888c1.512-.46 2.729-.953 3.65-1.48.526.264.888.724 1.085 1.382.197.657.197 1.808 0 3.452-.197 1.579-.691 4.012-1.48 7.3l-1.085 4.834h11.148c0 1.579-.231 2.861-.691 3.848-2.696 0-4.965.066-6.807.197-1.841.132-3.42.296-4.735.493l-4.637 19.632c-1.249 5.393-1.611 9.207-1.085 11.443.592 2.236 1.71 3.355 3.354 3.355 1.118 0 2.335-.428 3.65-1.283a15.206 15.206 0 0 0 3.65-3.157c1.118.658 1.809 1.71 2.072 3.157-1.315 1.71-3.19 3.387-5.623 5.031-2.368 1.579-4.867 2.368-7.497 2.368Z" fill="#cb3364"/>
</svg>
