<?xml version="1.0" standalone="no"?>
<!DOCTYPE svg PUBLIC "-//W3C//DTD SVG 20010904//EN"
 "http://www.w3.org/TR/2001/REC-SVG-20010904/DTD/svg10.dtd">
<svg version="1.0" xmlns="http://www.w3.org/2000/svg"
 width="2000.000000pt" height="2000.000000pt" viewBox="0 0 2000.000000 2000.000000"
 preserveAspectRatio="xMidYMid meet">
<metadata>
Created by potrace 1.14, written by Peter Selinger 2001-2017
</metadata>
<g transform="translate(0.000000,2000.000000) scale(0.100000,-0.100000)"
fill="#000000" stroke="none">
<path d="M0 10000 l0 -10000 10000 0 10000 0 0 10000 0 10000 -10000 0 -10000
0 0 -10000z m4620 6485 l0 -1765 1175 0 1175 0 0 1765 0 1765 1175 0 1175 0 0
-2350 0 -2350 -587 -2 -588 -3 -3 -587 -2 -588 -585 0 -585 0 0 -585 0 -585
-1175 0 -1175 0 0 585 0 585 -585 0 -585 0 -2 588 -3 587 -587 3 -588 2 0
2343 c0 1289 3 2347 7 2350 3 4 532 7 1175 7 l1168 0 0 -1765z m12925 0 l0
-1760 -587 -3 -588 -2 0 -585 0 -585 588 -2 587 -3 3 -1172 2 -1173 -2645 0
c-1749 0 -2645 -3 -2645 -10 0 -6 -402 -11 -1172 -12 l-1173 -3 -3 -2347 -2
-2348 -295 0 c-190 0 -295 -4 -295 -10 0 -7 -593 -10 -1760 -10 l-1760 0 0
-1175 0 -1175 1760 0 1760 0 0 -1175 0 -1175 -2350 0 -2350 0 0 585 0 585
-585 0 -585 0 -2 1763 -3 1762 -588 3 -587 2 2 1173 3 1172 587 3 588 2 0
1170 0 1170 1175 0 1175 0 0 -1170 0 -1170 885 0 885 0 0 1770 0 1770 585 0
585 0 0 590 0 590 880 0 880 0 0 1770 0 1770 585 0 585 0 0 583 c0 321 3 587
7 590 3 4 1325 6 2937 5 l2931 -3 0 -1760z m-1175 -8265 l0 -590 590 0 590 0
-2 -2347 -3 -2348 -587 -3 -588 -2 0 -585 0 -585 -2350 0 -2350 0 0 585 0 585
-585 0 -585 0 0 2350 0 2350 585 0 585 0 0 583 c0 321 3 587 7 590 3 4 1061 7
2350 7 l2343 0 0 -590z"/>
<path d="M12850 14725 l0 -1175 585 0 585 0 0 585 0 585 588 2 587 3 0 585 0
585 -1172 3 -1173 2 0 -1175z"/>
<path d="M12850 5285 l0 -1175 1175 0 1175 0 -2 1173 -3 1172 -1172 3 -1173 2
0 -1175z"/>
</g>
</svg>
